<svg xmlns="http://www.w3.org/2000/svg" viewBox="56.7 56.7 142.6 142.6" class="lb-mascot lb-lacre lb-face" style="--blink:4.7s;--breathe:3.2s;--look:8.9s;--orbit:8.7s;--delay:-2.8s;--hop:-5px" role="img" aria-labelledby="lacre-title">
<title id="lacre-title">Lacre, segurança do LuveBot</title>
<defs>
<linearGradient id="lacre-g" x1=".25" y1="0" x2=".8" y2="1"><stop offset="0" stop-color="#cffcf2"/><stop offset=".48" stop-color="#2dd4bf"/><stop offset="1" stop-color="#0b8a7e"/></linearGradient>
<radialGradient id="lacre-hl" cx=".4" cy=".08" r=".55"><stop offset="0" stop-color="#fff" stop-opacity=".75"/><stop offset="1" stop-color="#fff" stop-opacity="0"/></radialGradient>
<radialGradient id="lacre-rim" cx=".04" cy=".78" r=".5"><stop offset="0" stop-color="#93c5fd" stop-opacity=".95"/><stop offset="1" stop-color="#93c5fd" stop-opacity="0"/></radialGradient>
<linearGradient id="lacre-plate" x1="0" y1="0" x2="0" y2="1"><stop offset="0" stop-color="#fff"/><stop offset="1" stop-color="#e2f9f6"/></linearGradient>
<linearGradient id="lacre-eye" x1="0" y1="0" x2="0" y2="1"><stop offset="0" stop-color="#2b3060"/><stop offset="1" stop-color="#141833"/></linearGradient>
<radialGradient id="lacre-sat" cx=".32" cy=".28" r=".8"><stop offset="0" stop-color="#e7fef9"/><stop offset=".55" stop-color="#2dd4bf"/><stop offset="1" stop-color="#0b8a7e"/></radialGradient>
<clipPath id="lacre-clip"><path d="M40,82C47,68.3 69.3,68 84,64C98.7,60 113.3,58 128,58C142.7,58 157.3,60 172,64C186.7,68 209,68.3 216,82C223,95.7 219.3,126 214,146C208.7,166 198.3,187 184,202C169.7,217 136.4,236 128,236C119.6,236 86.3,217 72,202C57.7,187 47.3,166 42,146C36.7,126 33,95.7 40,82Z"/></clipPath>
<filter id="lacre-blur" x="-30%" y="-30%" width="160%" height="160%"><feGaussianBlur stdDeviation="7"/></filter>
<filter id="lacre-soft" x="-50%" y="-200%" width="200%" height="500%"><feGaussianBlur stdDeviation="4"/></filter>
</defs>
<style>.m-eye,.m-body,.m-sat,.m-ping{transform-box:fill-box}.m-eye{transform-origin:50% 50%}.m-body{transform-origin:50% 100%}.m-sat{transform-origin:50% 50%}.m-orbit,.m-shadow{transform-box:view-box}.m-ping{opacity:0;transform-origin:50% 50%}.needs-you .m-sat-fill,#lb-needs-you:target .m-sat-fill{fill:#fbbf24}.m-alert{opacity:0}.needs-you .m-alert,#lb-needs-you:target .m-alert{opacity:1}.lb-face .m-orbit,.lb-face .m-shadow{display:none}.m-prop,.m-float{transform-box:fill-box;transform-origin:50% 50%}@media (prefers-reduced-motion:no-preference){.m-eye{animation:lb-blink var(--blink,5s) var(--delay,0s) infinite}.m-body{animation:lb-breathe var(--breathe,3.6s) var(--delay,0s) ease-in-out infinite alternate}.m-gaze{animation:lb-look var(--look,11s) var(--delay,0s) ease-in-out infinite}.m-face{animation:lb-look-soft var(--look,11s) var(--delay,0s) ease-in-out infinite}.m-orbit{animation:lb-orbit var(--orbit,7s) linear infinite}.m-sat{animation:lb-depth var(--orbit,7s) ease-in-out infinite}.is-working .m-gaze,#lb-working:target .m-gaze{animation:none}.is-working .m-pair,#lb-working:target .m-pair{animation:lb-scan 1.5s ease-in-out infinite}.is-working .m-orbit,.is-working .m-sat,#lb-working:target .m-orbit,#lb-working:target .m-sat{animation-duration:1.8s}.is-working .m-body,#lb-working:target .m-body{animation-duration:1.1s}.needs-you .m-hop,#lb-needs-you:target .m-hop{animation:lb-hop 1.9s cubic-bezier(.3,.7,.4,1) infinite}.needs-you .m-body,#lb-needs-you:target .m-body{animation:lb-squash 1.9s ease-in-out infinite}.needs-you .m-shadow,#lb-needs-you:target .m-shadow{animation:lb-shadow 1.9s cubic-bezier(.3,.7,.4,1) infinite}.needs-you .m-ping,#lb-needs-you:target .m-ping{animation:lb-ping 1.9s ease-out infinite}.m-prop{animation:lb-prop .9s linear infinite}.is-working .m-prop,#lb-working:target .m-prop{animation-duration:.22s}.m-blinker{animation:lb-blinker 2.2s steps(1) infinite}.is-working .m-blinker,#lb-working:target .m-blinker{animation-duration:.5s}.m-float{animation:lb-float 3s ease-in-out infinite alternate}.m-wobble{transform-box:fill-box;transform-origin:20% 80%;animation:lb-wobble 4s ease-in-out infinite}.is-working .m-wobble,#lb-working:target .m-wobble{animation:lb-sweep 1.5s ease-in-out infinite}}@keyframes lb-blink{0%,16%,20%,59%,63%,64.5%,68.5%,100%{transform:scaleY(1)}18%,61%,66.5%{transform:scaleY(.08)}}@keyframes lb-breathe{from{transform:scale(1,1)}to{transform:scale(1.025,.972)}}@keyframes lb-look{0%,36%{transform:translate(0,0)}41%,54%{transform:translate(-4.5px,0)}59%,63%{transform:translate(0,0)}68%,80%{transform:translate(4px,-1.5px)}86%,100%{transform:translate(0,0)}}@keyframes lb-look-soft{0%,36%{transform:translate(0,0)}41%,54%{transform:translate(-2px,0)}59%,63%{transform:translate(0,0)}68%,80%{transform:translate(2px,-.5px)}86%,100%{transform:translate(0,0)}}@keyframes lb-scan{0%,100%{transform:translate(-5px,0)}50%{transform:translate(5px,0)}}@keyframes lb-orbit{to{transform:rotate(360deg)}}@keyframes lb-depth{0%,100%{transform:scale(1)}25%{transform:scale(1.12)}75%{transform:scale(.86)}}@keyframes lb-hop{0%,46%,100%{transform:translateY(0)}20%{transform:translateY(var(--hop,-18px))}36%{transform:translateY(0)}41%{transform:translateY(calc(var(--hop,-18px)*.28))}}@keyframes lb-squash{0%,46%,100%{transform:scale(1,1)}6%{transform:scale(1.07,.9)}14%{transform:scale(.95,1.06)}34%{transform:scale(1,1)}37%{transform:scale(1.06,.92)}43%{transform:scale(.99,1.01)}}@keyframes lb-shadow{0%,36%,46%,100%{transform:scale(1);opacity:.16}20%{transform:scale(.72);opacity:.08}41%{transform:scale(.92)}}@keyframes lb-ping{0%,30%{transform:scale(1);opacity:0}34%{opacity:.7}70%,100%{transform:scale(1.8);opacity:0}}@keyframes lb-prop{0%,100%{transform:scaleX(1)}50%{transform:scaleX(-1)}}@keyframes lb-float{from{transform:translateY(0)}to{transform:translateY(-4px)}}@keyframes lb-blinker{0%,100%{opacity:1}50%{opacity:.25}}@keyframes lb-wobble{0%,100%{transform:rotate(0)}50%{transform:rotate(-6deg)}}@keyframes lb-sweep{0%,100%{transform:translate(-4px,0) rotate(-4deg)}50%{transform:translate(6px,-3px) rotate(6deg)}}</style>
<g id="lb-working"><g id="lb-needs-you">
<ellipse class="m-shadow" cx="128" cy="244" rx="59.8" ry="6" fill="#0b0f19" opacity=".16" filter="url(#lacre-soft)" style="transform-origin:128px 244px"/>
<g class="m-hop">
<g class="m-orbit" style="transform-origin:216.6px 50.4px"><g class="m-sat">
<circle class="m-ping" cx="222" cy="48" r="12" fill="none" stroke="#fbbf24" stroke-width="3"/>
<circle class="m-sat-fill" cx="222" cy="48" r="12" fill="url(#lacre-sat)"/><ellipse cx="218.4" cy="43.4" rx="4.6" ry="2.6" fill="#fff" opacity=".55" transform="rotate(-30 218.4 43.4)"/>
</g></g>
<g class="m-body">

<path d="M40,82C47,68.3 69.3,68 84,64C98.7,60 113.3,58 128,58C142.7,58 157.3,60 172,64C186.7,68 209,68.3 216,82C223,95.7 219.3,126 214,146C208.7,166 198.3,187 184,202C169.7,217 136.4,236 128,236C119.6,236 86.3,217 72,202C57.7,187 47.3,166 42,146C36.7,126 33,95.7 40,82Z" fill="url(#lacre-g)" stroke="#0b8a7e" stroke-opacity=".35" stroke-width="1.2"/>
<g clip-path="url(#lacre-clip)">
<rect x="40" y="58" width="176" height="178" fill="url(#lacre-rim)"/>
<rect x="40" y="58" width="176" height="178" fill="url(#lacre-hl)"/>
<ellipse cx="98.1" cy="93.6" rx="15.8" ry="8.9" fill="#fff" opacity=".5" filter="url(#lacre-soft)" transform="rotate(-35 98.1 93.6)"/>
</g>
<g class="m-face">
<path d="M182,132C182,137.4 180.9,143.9 178.8,148.2C176.7,152.6 173.5,155.4 169.4,158C165.2,160.7 160.7,162.7 153.8,164C146.9,165.3 136.6,166 128,166C119.4,166 109.1,165.3 102.2,164C95.3,162.7 90.8,160.7 86.6,158C82.5,155.4 79.3,152.6 77.2,148.2C75.1,143.9 74,137.4 74,132C74,126.6 75.1,120.1 77.2,115.8C79.3,111.4 82.5,108.6 86.6,106C90.8,103.3 95.3,101.3 102.2,100C109.1,98.7 119.4,98 128,98C136.6,98 146.9,98.7 153.8,100C160.7,101.3 165.2,103.3 169.4,106C173.5,108.6 176.7,111.4 178.8,115.8C180.9,120.1 182,126.6 182,132Z" fill="#fff" opacity=".55" filter="url(#lacre-blur)"/>
<path d="M182,132C182,137.4 180.9,143.9 178.8,148.2C176.7,152.6 173.5,155.4 169.4,158C165.2,160.7 160.7,162.7 153.8,164C146.9,165.3 136.6,166 128,166C119.4,166 109.1,165.3 102.2,164C95.3,162.7 90.8,160.7 86.6,158C82.5,155.4 79.3,152.6 77.2,148.2C75.1,143.9 74,137.4 74,132C74,126.6 75.1,120.1 77.2,115.8C79.3,111.4 82.5,108.6 86.6,106C90.8,103.3 95.3,101.3 102.2,100C109.1,98.7 119.4,98 128,98C136.6,98 146.9,98.7 153.8,100C160.7,101.3 165.2,103.3 169.4,106C173.5,108.6 176.7,111.4 178.8,115.8C180.9,120.1 182,126.6 182,132Z" fill="url(#lacre-plate)"/>
<g class="m-gaze"><g class="m-pair"><g class="m-eye"><rect x="100" y="121" width="14" height="22" rx="7" fill="url(#lacre-eye)"/></g><g class="m-eye"><rect x="142" y="121" width="14" height="22" rx="7" fill="url(#lacre-eye)"/></g></g></g>
<rect x="101" y="108.8" width="12" height="4.5" rx="2.25" fill="#141833" transform="rotate(8 107 111)"/><rect x="143" y="108.8" width="12" height="4.5" rx="2.25" fill="#141833" transform="rotate(-8 149 111)"/><path d="M123,149Q128,152.8 133,149" fill="none" stroke="#141833" stroke-width="3" stroke-linecap="round"/>
</g>
<path d="M118,202V194A10,10 0 0 1 138,194V202" fill="none" stroke="#0f5c60" stroke-width="5"/><rect x="111" y="198" width="34" height="25" rx="8" fill="#0f5c60"/><circle cx="128" cy="208" r="3.5" fill="#cffcf2"/><rect x="126.5" y="209" width="3" height="7" rx="1.5" fill="#cffcf2"/>
</g>
</g>
<circle class="m-alert" cx="179.3" cy="76.7" r="10.7" fill="#fbbf24" stroke="#fff" stroke-width="3.6"/>
</g></g>
</svg>
