<svg xmlns="http://www.w3.org/2000/svg" viewBox="49.5 83.5 153.1 153.1" class="lb-mascot lb-rumo lb-face" style="--blink:6.4s;--breathe:4.2s;--look:11.8s;--orbit:8.4s;--delay:-1s;--hop:-5px" role="img" aria-labelledby="rumo-title">
<title id="rumo-title">Rumo, chefe de gabinete do LuveBot</title>
<defs>
<linearGradient id="rumo-g" x1=".25" y1="0" x2=".8" y2="1"><stop offset="0" stop-color="#ffe2c4"/><stop offset=".48" stop-color="#fb923c"/><stop offset="1" stop-color="#e05206"/></linearGradient>
<radialGradient id="rumo-hl" cx=".4" cy=".08" r=".55"><stop offset="0" stop-color="#fff" stop-opacity=".75"/><stop offset="1" stop-color="#fff" stop-opacity="0"/></radialGradient>
<radialGradient id="rumo-rim" cx=".04" cy=".78" r=".5"><stop offset="0" stop-color="#fde047" stop-opacity=".95"/><stop offset="1" stop-color="#fde047" stop-opacity="0"/></radialGradient>
<linearGradient id="rumo-plate" x1="0" y1="0" x2="0" y2="1"><stop offset="0" stop-color="#fff"/><stop offset="1" stop-color="#fef0e4"/></linearGradient>
<linearGradient id="rumo-eye" x1="0" y1="0" x2="0" y2="1"><stop offset="0" stop-color="#2b3060"/><stop offset="1" stop-color="#141833"/></linearGradient>
<radialGradient id="rumo-sat" cx=".32" cy=".28" r=".8"><stop offset="0" stop-color="#fff1e2"/><stop offset=".55" stop-color="#fb923c"/><stop offset="1" stop-color="#e05206"/></radialGradient>
<clipPath id="rumo-clip"><path d="M232,166C231.6,173.2 229.6,181.3 226.3,187.6C223,193.9 218.2,199.1 212.2,203.8C206.3,208.5 198.9,212.6 190.5,215.9C182.2,219.2 173,221.8 162,223.4C151,225.1 136.9,226 124.4,226C111.9,226 97.9,225.1 87.1,223.4C76.3,221.8 67.5,219.2 59.5,215.9C51.5,212.6 44.6,208.5 39.2,203.8C33.8,199.1 29.7,193.9 27.1,187.6C24.6,181.3 23.6,173.2 24,166C24.4,158.8 26.4,150.7 29.7,144.4C33,138.1 37.8,132.9 43.8,128.2C49.7,123.5 57.1,119.4 65.5,116.1C73.8,112.8 83,110.2 94,108.6C105,106.9 119.1,106 131.6,106C144.1,106 158.1,106.9 168.9,108.6C179.7,110.2 188.5,112.8 196.5,116.1C204.5,119.4 211.4,123.5 216.8,128.2C222.2,132.9 226.3,138.1 228.9,144.4C231.4,150.7 232.4,158.8 232,166Z"/></clipPath>
<filter id="rumo-blur" x="-30%" y="-30%" width="160%" height="160%"><feGaussianBlur stdDeviation="7"/></filter>
<filter id="rumo-soft" x="-50%" y="-200%" width="200%" height="500%"><feGaussianBlur stdDeviation="4"/></filter>
</defs>
<style>.m-eye,.m-body,.m-sat,.m-ping{transform-box:fill-box}.m-eye{transform-origin:50% 50%}.m-body{transform-origin:50% 100%}.m-sat{transform-origin:50% 50%}.m-orbit,.m-shadow{transform-box:view-box}.m-ping{opacity:0;transform-origin:50% 50%}.needs-you .m-sat-fill,#lb-needs-you:target .m-sat-fill{fill:#fbbf24}.m-alert{opacity:0}.needs-you .m-alert,#lb-needs-you:target .m-alert{opacity:1}.lb-face .m-orbit,.lb-face .m-shadow{display:none}.m-prop,.m-float{transform-box:fill-box;transform-origin:50% 50%}@media (prefers-reduced-motion:no-preference){.m-eye{animation:lb-blink var(--blink,5s) var(--delay,0s) infinite}.m-body{animation:lb-breathe var(--breathe,3.6s) var(--delay,0s) ease-in-out infinite alternate}.m-gaze{animation:lb-look var(--look,11s) var(--delay,0s) ease-in-out infinite}.m-face{animation:lb-look-soft var(--look,11s) var(--delay,0s) ease-in-out infinite}.m-orbit{animation:lb-orbit var(--orbit,7s) linear infinite}.m-sat{animation:lb-depth var(--orbit,7s) ease-in-out infinite}.is-working .m-gaze,#lb-working:target .m-gaze{animation:none}.is-working .m-pair,#lb-working:target .m-pair{animation:lb-scan 1.5s ease-in-out infinite}.is-working .m-orbit,.is-working .m-sat,#lb-working:target .m-orbit,#lb-working:target .m-sat{animation-duration:1.8s}.is-working .m-body,#lb-working:target .m-body{animation-duration:1.1s}.needs-you .m-hop,#lb-needs-you:target .m-hop{animation:lb-hop 1.9s cubic-bezier(.3,.7,.4,1) infinite}.needs-you .m-body,#lb-needs-you:target .m-body{animation:lb-squash 1.9s ease-in-out infinite}.needs-you .m-shadow,#lb-needs-you:target .m-shadow{animation:lb-shadow 1.9s cubic-bezier(.3,.7,.4,1) infinite}.needs-you .m-ping,#lb-needs-you:target .m-ping{animation:lb-ping 1.9s ease-out infinite}.m-prop{animation:lb-prop .9s linear infinite}.is-working .m-prop,#lb-working:target .m-prop{animation-duration:.22s}.m-blinker{animation:lb-blinker 2.2s steps(1) infinite}.is-working .m-blinker,#lb-working:target .m-blinker{animation-duration:.5s}.m-float{animation:lb-float 3s ease-in-out infinite alternate}.m-wobble{transform-box:fill-box;transform-origin:20% 80%;animation:lb-wobble 4s ease-in-out infinite}.is-working .m-wobble,#lb-working:target .m-wobble{animation:lb-sweep 1.5s ease-in-out infinite}}@keyframes lb-blink{0%,16%,20%,59%,63%,64.5%,68.5%,100%{transform:scaleY(1)}18%,61%,66.5%{transform:scaleY(.08)}}@keyframes lb-breathe{from{transform:scale(1,1)}to{transform:scale(1.025,.972)}}@keyframes lb-look{0%,36%{transform:translate(0,0)}41%,54%{transform:translate(-4.5px,0)}59%,63%{transform:translate(0,0)}68%,80%{transform:translate(4px,-1.5px)}86%,100%{transform:translate(0,0)}}@keyframes lb-look-soft{0%,36%{transform:translate(0,0)}41%,54%{transform:translate(-2px,0)}59%,63%{transform:translate(0,0)}68%,80%{transform:translate(2px,-.5px)}86%,100%{transform:translate(0,0)}}@keyframes lb-scan{0%,100%{transform:translate(-5px,0)}50%{transform:translate(5px,0)}}@keyframes lb-orbit{to{transform:rotate(360deg)}}@keyframes lb-depth{0%,100%{transform:scale(1)}25%{transform:scale(1.12)}75%{transform:scale(.86)}}@keyframes lb-hop{0%,46%,100%{transform:translateY(0)}20%{transform:translateY(var(--hop,-18px))}36%{transform:translateY(0)}41%{transform:translateY(calc(var(--hop,-18px)*.28))}}@keyframes lb-squash{0%,46%,100%{transform:scale(1,1)}6%{transform:scale(1.07,.9)}14%{transform:scale(.95,1.06)}34%{transform:scale(1,1)}37%{transform:scale(1.06,.92)}43%{transform:scale(.99,1.01)}}@keyframes lb-shadow{0%,36%,46%,100%{transform:scale(1);opacity:.16}20%{transform:scale(.72);opacity:.08}41%{transform:scale(.92)}}@keyframes lb-ping{0%,30%{transform:scale(1);opacity:0}34%{opacity:.7}70%,100%{transform:scale(1.8);opacity:0}}@keyframes lb-prop{0%,100%{transform:scaleX(1)}50%{transform:scaleX(-1)}}@keyframes lb-float{from{transform:translateY(0)}to{transform:translateY(-4px)}}@keyframes lb-blinker{0%,100%{opacity:1}50%{opacity:.25}}@keyframes lb-wobble{0%,100%{transform:rotate(0)}50%{transform:rotate(-6deg)}}@keyframes lb-sweep{0%,100%{transform:translate(-4px,0) rotate(-4deg)}50%{transform:translate(6px,-3px) rotate(6deg)}}</style>
<g id="lb-working"><g id="lb-needs-you">
<ellipse class="m-shadow" cx="128" cy="234" rx="70.7" ry="6" fill="#0b0f19" opacity=".16" filter="url(#rumo-soft)" style="transform-origin:128px 234px"/>
<g class="m-hop">
<g class="m-orbit" style="transform-origin:204.15px 78.6px"><g class="m-sat">
<circle class="m-ping" cx="210" cy="76" r="13" fill="none" stroke="#fbbf24" stroke-width="3"/>
<circle class="m-sat-fill" cx="210" cy="76" r="13" fill="url(#rumo-sat)"/><ellipse cx="206.1" cy="71.1" rx="4.9" ry="2.9" fill="#fff" opacity=".55" transform="rotate(-30 206.1 71.1)"/>
</g></g><g class="m-orbit" style="transform-origin:146px 67.6px;--orbit:5.2s"><g class="m-sat"><circle cx="150" cy="66" r="8" fill="#60a5fa"/><ellipse cx="147.6" cy="63" rx="3" ry="1.8" fill="#fff" opacity=".55" transform="rotate(-30 147.6 63)"/></g></g><g class="m-orbit" style="transform-origin:92.5px 71.4px;--orbit:6.4s"><g class="m-sat"><circle cx="96" cy="70" r="7" fill="#34d399"/><ellipse cx="93.9" cy="67.3" rx="2.7" ry="1.5" fill="#fff" opacity=".55" transform="rotate(-30 93.9 67.3)"/></g></g><g class="m-orbit" style="transform-origin:55px 93.2px;--orbit:4.6s"><g class="m-sat"><circle cx="58" cy="92" r="6" fill="#e879f9"/><ellipse cx="56.2" cy="89.7" rx="2.3" ry="1.3" fill="#fff" opacity=".55" transform="rotate(-30 56.2 89.7)"/></g></g>
<g class="m-body">

<path d="M232,166C231.6,173.2 229.6,181.3 226.3,187.6C223,193.9 218.2,199.1 212.2,203.8C206.3,208.5 198.9,212.6 190.5,215.9C182.2,219.2 173,221.8 162,223.4C151,225.1 136.9,226 124.4,226C111.9,226 97.9,225.1 87.1,223.4C76.3,221.8 67.5,219.2 59.5,215.9C51.5,212.6 44.6,208.5 39.2,203.8C33.8,199.1 29.7,193.9 27.1,187.6C24.6,181.3 23.6,173.2 24,166C24.4,158.8 26.4,150.7 29.7,144.4C33,138.1 37.8,132.9 43.8,128.2C49.7,123.5 57.1,119.4 65.5,116.1C73.8,112.8 83,110.2 94,108.6C105,106.9 119.1,106 131.6,106C144.1,106 158.1,106.9 168.9,108.6C179.7,110.2 188.5,112.8 196.5,116.1C204.5,119.4 211.4,123.5 216.8,128.2C222.2,132.9 226.3,138.1 228.9,144.4C231.4,150.7 232.4,158.8 232,166Z" fill="url(#rumo-g)" stroke="#e05206" stroke-opacity=".35" stroke-width="1.2"/>
<g clip-path="url(#rumo-clip)">
<rect x="24" y="106" width="208" height="120" fill="url(#rumo-rim)"/>
<rect x="24" y="106" width="208" height="120" fill="url(#rumo-hl)"/>
<ellipse cx="92.6" cy="130" rx="18.7" ry="6" fill="#fff" opacity=".5" filter="url(#rumo-soft)" transform="rotate(-35 92.6 130)"/>
</g>
<g class="m-face">
<path d="M184,164C184,169.1 182.8,175.1 180.4,179.3C178.1,183.5 174.5,186.4 170,189C165.4,191.6 160.2,193.6 152.9,195C145.6,196.3 135,197 126,197C117,197 106.4,196.3 99.1,195C91.8,193.6 86.6,191.6 82,189C77.5,186.4 73.9,183.5 71.6,179.3C69.2,175.1 68,169.1 68,164C68,158.9 69.2,152.9 71.6,148.7C73.9,144.5 77.5,141.6 82,139C86.6,136.4 91.8,134.4 99.1,133C106.4,131.7 117,131 126,131C135,131 145.6,131.7 152.9,133C160.2,134.4 165.4,136.4 170,139C174.5,141.6 178.1,144.5 180.4,148.7C182.8,152.9 184,158.9 184,164Z" fill="#fff" opacity=".55" filter="url(#rumo-blur)"/>
<path d="M184,164C184,169.1 182.8,175.1 180.4,179.3C178.1,183.5 174.5,186.4 170,189C165.4,191.6 160.2,193.6 152.9,195C145.6,196.3 135,197 126,197C117,197 106.4,196.3 99.1,195C91.8,193.6 86.6,191.6 82,189C77.5,186.4 73.9,183.5 71.6,179.3C69.2,175.1 68,169.1 68,164C68,158.9 69.2,152.9 71.6,148.7C73.9,144.5 77.5,141.6 82,139C86.6,136.4 91.8,134.4 99.1,133C106.4,131.7 117,131 126,131C135,131 145.6,131.7 152.9,133C160.2,134.4 165.4,136.4 170,139C174.5,141.6 178.1,144.5 180.4,148.7C182.8,152.9 184,158.9 184,164Z" fill="url(#rumo-plate)"/>
<g class="m-gaze"><g class="m-pair"><g class="m-eye"><rect x="97.5" y="151.5" width="13" height="21" rx="6.5" fill="url(#rumo-eye)"/></g><g class="m-eye"><rect x="141.5" y="151.5" width="13" height="21" rx="6.5" fill="url(#rumo-eye)"/></g></g></g>
<path d="M118,181Q126,187 134,181" fill="none" stroke="#141833" stroke-width="3" stroke-linecap="round"/>
</g>

</g>
</g>
<circle class="m-alert" cx="181.2" cy="104.9" r="11.5" fill="#fbbf24" stroke="#fff" stroke-width="3.8"/>
</g></g>
</svg>
