<svg xmlns="http://www.w3.org/2000/svg" viewBox="0 0 256 256" class="lb-mascot lb-zuca" style="--blink:5.6s;--breathe:3.8s;--look:10.4s;--orbit:7.2s;--delay:-2.6s" role="img" aria-labelledby="zuca-title">
<title id="zuca-title">Zuca, vendas do LuveBot</title>
<defs>
<linearGradient id="zuca-g" x1=".25" y1="0" x2=".8" y2="1"><stop offset="0" stop-color="#d6e7ff"/><stop offset=".48" stop-color="#60a5fa"/><stop offset="1" stop-color="#2160e8"/></linearGradient>
<radialGradient id="zuca-hl" cx=".4" cy=".08" r=".55"><stop offset="0" stop-color="#fff" stop-opacity=".75"/><stop offset="1" stop-color="#fff" stop-opacity="0"/></radialGradient>
<radialGradient id="zuca-rim" cx=".04" cy=".78" r=".5"><stop offset="0" stop-color="#67e8f9" stop-opacity=".95"/><stop offset="1" stop-color="#67e8f9" stop-opacity="0"/></radialGradient>
<linearGradient id="zuca-plate" x1="0" y1="0" x2="0" y2="1"><stop offset="0" stop-color="#fff"/><stop offset="1" stop-color="#e9f2fe"/></linearGradient>
<linearGradient id="zuca-eye" x1="0" y1="0" x2="0" y2="1"><stop offset="0" stop-color="#2b3060"/><stop offset="1" stop-color="#141833"/></linearGradient>
<radialGradient id="zuca-sat" cx=".32" cy=".28" r=".8"><stop offset="0" stop-color="#ebf3ff"/><stop offset=".55" stop-color="#60a5fa"/><stop offset="1" stop-color="#2160e8"/></radialGradient>
<clipPath id="zuca-clip"><path d="M216,136C216,145.5 214.5,155.7 211.8,164.6C209.1,173.6 204.8,182.2 199.6,189.6C194.3,197 187.7,203.8 180.4,209.2C173.1,214.5 164.7,218.9 156,221.7C147.3,224.5 137.3,226 128,226C118.7,226 108.7,224.5 100,221.7C91.3,218.9 82.9,214.5 75.6,209.2C68.3,203.8 61.7,197 56.4,189.6C51.2,182.2 46.9,173.6 44.2,164.6C41.5,155.7 40,145.5 40,136C40,126.5 41.5,116.3 44.2,107.4C46.9,98.4 51.2,89.8 56.4,82.4C61.7,75 68.3,68.2 75.6,62.8C82.9,57.5 91.3,53.1 100,50.3C108.7,47.5 118.7,46 128,46C137.3,46 147.3,47.5 156,50.3C164.7,53.1 173.1,57.5 180.4,62.8C187.7,68.2 194.3,75 199.6,82.4C204.8,89.8 209.1,98.4 211.8,107.4C214.5,116.3 216,126.5 216,136Z"/></clipPath>
<filter id="zuca-blur" x="-30%" y="-30%" width="160%" height="160%"><feGaussianBlur stdDeviation="7"/></filter>
<filter id="zuca-soft" x="-50%" y="-200%" width="200%" height="500%"><feGaussianBlur stdDeviation="4"/></filter>
</defs>
<style>.m-eye,.m-body,.m-sat,.m-ping{transform-box:fill-box}.m-eye{transform-origin:50% 50%}.m-body{transform-origin:50% 100%}.m-sat{transform-origin:50% 50%}.m-orbit,.m-shadow{transform-box:view-box}.m-ping{opacity:0;transform-origin:50% 50%}.needs-you .m-sat-fill,#lb-needs-you:target .m-sat-fill{fill:#fbbf24}.m-alert{opacity:0}.needs-you .m-alert,#lb-needs-you:target .m-alert{opacity:1}.lb-face .m-orbit,.lb-face .m-shadow{display:none}.m-prop,.m-float{transform-box:fill-box;transform-origin:50% 50%}@media (prefers-reduced-motion:no-preference){.m-eye{animation:lb-blink var(--blink,5s) var(--delay,0s) infinite}.m-body{animation:lb-breathe var(--breathe,3.6s) var(--delay,0s) ease-in-out infinite alternate}.m-gaze{animation:lb-look var(--look,11s) var(--delay,0s) ease-in-out infinite}.m-face{animation:lb-look-soft var(--look,11s) var(--delay,0s) ease-in-out infinite}.m-orbit{animation:lb-orbit var(--orbit,7s) linear infinite}.m-sat{animation:lb-depth var(--orbit,7s) ease-in-out infinite}.is-working .m-gaze,#lb-working:target .m-gaze{animation:none}.is-working .m-pair,#lb-working:target .m-pair{animation:lb-scan 1.5s ease-in-out infinite}.is-working .m-orbit,.is-working .m-sat,#lb-working:target .m-orbit,#lb-working:target .m-sat{animation-duration:1.8s}.is-working .m-body,#lb-working:target .m-body{animation-duration:1.1s}.needs-you .m-hop,#lb-needs-you:target .m-hop{animation:lb-hop 1.9s cubic-bezier(.3,.7,.4,1) infinite}.needs-you .m-body,#lb-needs-you:target .m-body{animation:lb-squash 1.9s ease-in-out infinite}.needs-you .m-shadow,#lb-needs-you:target .m-shadow{animation:lb-shadow 1.9s cubic-bezier(.3,.7,.4,1) infinite}.needs-you .m-ping,#lb-needs-you:target .m-ping{animation:lb-ping 1.9s ease-out infinite}.m-prop{animation:lb-prop .9s linear infinite}.is-working .m-prop,#lb-working:target .m-prop{animation-duration:.22s}.m-blinker{animation:lb-blinker 2.2s steps(1) infinite}.is-working .m-blinker,#lb-working:target .m-blinker{animation-duration:.5s}.m-float{animation:lb-float 3s ease-in-out infinite alternate}.m-wobble{transform-box:fill-box;transform-origin:20% 80%;animation:lb-wobble 4s ease-in-out infinite}.is-working .m-wobble,#lb-working:target .m-wobble{animation:lb-sweep 1.5s ease-in-out infinite}}@keyframes lb-blink{0%,16%,20%,59%,63%,64.5%,68.5%,100%{transform:scaleY(1)}18%,61%,66.5%{transform:scaleY(.08)}}@keyframes lb-breathe{from{transform:scale(1,1)}to{transform:scale(1.025,.972)}}@keyframes lb-look{0%,36%{transform:translate(0,0)}41%,54%{transform:translate(-4.5px,0)}59%,63%{transform:translate(0,0)}68%,80%{transform:translate(4px,-1.5px)}86%,100%{transform:translate(0,0)}}@keyframes lb-look-soft{0%,36%{transform:translate(0,0)}41%,54%{transform:translate(-2px,0)}59%,63%{transform:translate(0,0)}68%,80%{transform:translate(2px,-.5px)}86%,100%{transform:translate(0,0)}}@keyframes lb-scan{0%,100%{transform:translate(-5px,0)}50%{transform:translate(5px,0)}}@keyframes lb-orbit{to{transform:rotate(360deg)}}@keyframes lb-depth{0%,100%{transform:scale(1)}25%{transform:scale(1.12)}75%{transform:scale(.86)}}@keyframes lb-hop{0%,46%,100%{transform:translateY(0)}20%{transform:translateY(var(--hop,-18px))}36%{transform:translateY(0)}41%{transform:translateY(calc(var(--hop,-18px)*.28))}}@keyframes lb-squash{0%,46%,100%{transform:scale(1,1)}6%{transform:scale(1.07,.9)}14%{transform:scale(.95,1.06)}34%{transform:scale(1,1)}37%{transform:scale(1.06,.92)}43%{transform:scale(.99,1.01)}}@keyframes lb-shadow{0%,36%,46%,100%{transform:scale(1);opacity:.16}20%{transform:scale(.72);opacity:.08}41%{transform:scale(.92)}}@keyframes lb-ping{0%,30%{transform:scale(1);opacity:0}34%{opacity:.7}70%,100%{transform:scale(1.8);opacity:0}}@keyframes lb-prop{0%,100%{transform:scaleX(1)}50%{transform:scaleX(-1)}}@keyframes lb-float{from{transform:translateY(0)}to{transform:translateY(-4px)}}@keyframes lb-blinker{0%,100%{opacity:1}50%{opacity:.25}}@keyframes lb-wobble{0%,100%{transform:rotate(0)}50%{transform:rotate(-6deg)}}@keyframes lb-sweep{0%,100%{transform:translate(-4px,0) rotate(-4deg)}50%{transform:translate(6px,-3px) rotate(6deg)}}</style>
<g id="lb-working"><g id="lb-needs-you">
<ellipse class="m-shadow" cx="128" cy="234" rx="59.8" ry="6" fill="#0b0f19" opacity=".16" filter="url(#zuca-soft)" style="transform-origin:128px 234px"/>
<g class="m-hop">
<g class="m-orbit" style="transform-origin:214.15px 52.6px"><g class="m-sat">
<circle class="m-ping" cx="220" cy="50" r="13" fill="none" stroke="#fbbf24" stroke-width="3"/>
<circle class="m-sat-fill" cx="220" cy="50" r="13" fill="url(#zuca-sat)"/><ellipse cx="216.1" cy="45.1" rx="4.9" ry="2.9" fill="#fff" opacity=".55" transform="rotate(-30 216.1 45.1)"/>
</g></g>
<g class="m-body">
<path d="M128,236q-7,9 1,16" fill="none" stroke="#1c43a0" stroke-width="2.5" stroke-linecap="round"/><path d="M119,237L137,237L128,224Z" fill="#2160e8" stroke="#2160e8" stroke-width="3" stroke-linejoin="round"/>
<path d="M216,136C216,145.5 214.5,155.7 211.8,164.6C209.1,173.6 204.8,182.2 199.6,189.6C194.3,197 187.7,203.8 180.4,209.2C173.1,214.5 164.7,218.9 156,221.7C147.3,224.5 137.3,226 128,226C118.7,226 108.7,224.5 100,221.7C91.3,218.9 82.9,214.5 75.6,209.2C68.3,203.8 61.7,197 56.4,189.6C51.2,182.2 46.9,173.6 44.2,164.6C41.5,155.7 40,145.5 40,136C40,126.5 41.5,116.3 44.2,107.4C46.9,98.4 51.2,89.8 56.4,82.4C61.7,75 68.3,68.2 75.6,62.8C82.9,57.5 91.3,53.1 100,50.3C108.7,47.5 118.7,46 128,46C137.3,46 147.3,47.5 156,50.3C164.7,53.1 173.1,57.5 180.4,62.8C187.7,68.2 194.3,75 199.6,82.4C204.8,89.8 209.1,98.4 211.8,107.4C214.5,116.3 216,126.5 216,136Z" fill="url(#zuca-g)" stroke="#2160e8" stroke-opacity=".35" stroke-width="1.2"/>
<g clip-path="url(#zuca-clip)">
<rect x="40" y="46" width="176" height="180" fill="url(#zuca-rim)"/>
<rect x="40" y="46" width="176" height="180" fill="url(#zuca-hl)"/>
<ellipse cx="98.1" cy="82" rx="15.8" ry="9" fill="#fff" opacity=".5" filter="url(#zuca-soft)" transform="rotate(-35 98.1 82)"/>
</g>
<g class="m-face">
<path d="M182,134C182,139.7 180.9,146.5 178.7,151.2C176.5,155.8 173.2,159.1 168.9,162C164.7,165 159.9,167.2 153,168.7C146.2,170.2 136.3,171 128,171C119.7,171 109.8,170.2 103,168.7C96.1,167.2 91.3,165 87.1,162C82.8,159.1 79.5,155.8 77.3,151.2C75.1,146.5 74,139.7 74,134C74,128.3 75.1,121.5 77.3,116.8C79.5,112.2 82.8,108.9 87.1,106C91.3,103 96.1,100.8 103,99.3C109.8,97.8 119.7,97 128,97C136.3,97 146.2,97.8 153,99.3C159.9,100.8 164.7,103 168.9,106C173.2,108.9 176.5,112.2 178.7,116.8C180.9,121.5 182,128.3 182,134Z" fill="#fff" opacity=".55" filter="url(#zuca-blur)"/>
<path d="M182,134C182,139.7 180.9,146.5 178.7,151.2C176.5,155.8 173.2,159.1 168.9,162C164.7,165 159.9,167.2 153,168.7C146.2,170.2 136.3,171 128,171C119.7,171 109.8,170.2 103,168.7C96.1,167.2 91.3,165 87.1,162C82.8,159.1 79.5,155.8 77.3,151.2C75.1,146.5 74,139.7 74,134C74,128.3 75.1,121.5 77.3,116.8C79.5,112.2 82.8,108.9 87.1,106C91.3,103 96.1,100.8 103,99.3C109.8,97.8 119.7,97 128,97C136.3,97 146.2,97.8 153,99.3C159.9,100.8 164.7,103 168.9,106C173.2,108.9 176.5,112.2 178.7,116.8C180.9,121.5 182,128.3 182,134Z" fill="url(#zuca-plate)"/>
<g class="m-gaze"><g class="m-pair"><path d="M98.5,133.3Q107,123 115.5,133.3" fill="none" stroke="#141833" stroke-width="5" stroke-linecap="round"/><g class="m-eye"><rect x="142.5" y="119.5" width="13" height="23" rx="6.5" fill="url(#zuca-eye)"/></g></g></g>
<path d="M119,147Q128,160.5 137,147Z" fill="#141833"/><ellipse cx="128" cy="152.6" rx="3.8" ry="1.8" fill="#fb7185"/>
</g>
<circle cx="72" cy="194" r="15" fill="#fff" stroke="#2160e8" stroke-width="2"/><path d="M72,202V186M65,192L72,185L79,192" fill="none" stroke="#16a34a" stroke-width="3.5" stroke-linecap="round" stroke-linejoin="round"/>
</g>
</g>

</g></g>
</svg>
